<svg width="25" height="22" viewBox="0 0 25 22" fill="none" xmlns="http://www.w3.org/2000/svg">
<path fill-rule="evenodd" clip-rule="evenodd" d="M0.75 11.0001C0.75 10.6106 0.904743 10.237 1.18019 9.96153C1.45563 9.68609 1.82921 9.53135 2.21875 9.53135L19.2357 9.53135L12.9289 3.22747C12.7923 3.09091 12.684 2.9288 12.6101 2.75037C12.5362 2.57195 12.4981 2.38072 12.4981 2.1876C12.4981 1.99447 12.5362 1.80324 12.6101 1.62482C12.684 1.4464 12.7923 1.28428 12.9289 1.14772C13.0654 1.01116 13.2276 0.902839 13.406 0.828933C13.5844 0.755029 13.7756 0.716993 13.9688 0.716993C14.1619 0.716993 14.3531 0.755029 14.5315 0.828933C14.71 0.902839 14.8721 1.01116 15.0086 1.14772L23.8211 9.96022C23.9579 10.0967 24.0664 10.2587 24.1405 10.4372C24.2145 10.6156 24.2526 10.8069 24.2526 11.0001C24.2526 11.1933 24.2145 11.3846 24.1405 11.563C24.0664 11.7415 23.9579 11.9035 23.8211 12.04L15.0086 20.8525C14.8721 20.989 14.71 21.0974 14.5315 21.1713C14.3531 21.2452 14.1619 21.2832 13.9688 21.2832C13.7756 21.2832 13.5844 21.2452 13.406 21.1713C13.2276 21.0974 13.0654 20.989 12.9289 20.8525C12.6531 20.5767 12.4981 20.2026 12.4981 19.8126C12.4981 19.6195 12.5362 19.4282 12.6101 19.2498C12.684 19.0714 12.7923 18.9093 12.9289 18.7727L19.2357 12.4688L2.21875 12.4688C1.82921 12.4688 1.45563 12.3141 1.18019 12.0387C0.904743 11.7632 0.75 11.3896 0.75 11.0001Z" fill="#667085"/>
</svg>
