<svg width="73" height="58" viewBox="0 0 73 58" fill="none" xmlns="http://www.w3.org/2000/svg">
<path d="M2.76939 9.65983C2.08127 9.65983 1.42132 9.87791 0.934742 10.2661C0.448162 10.6543 0.174805 11.1808 0.174805 11.7298V28.2898C0.174805 29.9368 0.994878 31.5164 2.45462 32.681C3.91436 33.8456 5.89419 34.4998 7.95857 34.4998H25.2558C27.3202 34.4998 29.3 33.8456 30.7598 32.681C32.2195 31.5164 33.0396 29.9368 33.0396 28.2898V11.7298C33.0396 11.1808 32.7662 10.6543 32.2797 10.2661C31.7931 9.87791 31.1331 9.65983 30.445 9.65983H29.5801V6.89983C29.5801 5.68864 29.1805 4.49879 28.4214 3.44989C27.6623 2.40098 26.5705 1.52996 25.2557 0.924381C23.941 0.3188 22.4496 -7.69233e-06 20.9315 1.39205e-10C19.4133 7.69261e-06 17.9219 0.318831 16.6072 0.924425C15.2925 0.318831 13.8011 7.69261e-06 12.2829 1.39205e-10C10.7648 -7.69233e-06 9.27342 0.3188 7.95867 0.924381C6.64392 1.52996 5.55213 2.40098 4.79304 3.44989C4.03394 4.49879 3.6343 5.68864 3.63426 6.89983V9.65707H2.76939V9.65983ZM20.9315 9.65983V6.89983C20.9315 5.93935 20.6859 5.02302 20.2396 4.19502C20.7423 4.11316 21.2615 4.12152 21.7597 4.21951C22.2578 4.31749 22.7224 4.50265 23.1197 4.76155C23.5171 5.02046 23.8373 5.34664 24.0572 5.71647C24.2771 6.08629 24.3911 6.49051 24.391 6.89983V9.65983H20.9315ZM15.7423 6.89983V9.65983H8.82343V6.89983C8.82343 6.16783 9.18791 5.46581 9.83668 4.94821C10.4855 4.43061 11.3654 4.13982 12.2829 4.13982C13.2004 4.13982 14.0803 4.43061 14.7291 4.94821C15.3779 5.46581 15.7423 6.16783 15.7423 6.89983ZM3.63426 44.8498V36.5698C4.96615 37.0142 6.42603 37.2598 7.95857 37.2598H8.82343V44.8498C8.82338 45.3616 9.06093 45.8552 9.49025 46.2355C9.91957 46.6157 10.5102 46.8556 11.1482 46.9088C11.8665 45.296 13.1934 43.9003 14.9465 42.9137C16.6996 41.9271 18.7928 41.398 20.9381 41.3992C23.0835 41.4004 25.1757 41.9319 26.9271 42.9205C28.6784 43.909 30.0029 45.3062 30.7183 46.9198H38.8203C39.5363 45.3055 40.8618 43.9078 42.6145 42.9193C44.3671 41.9307 46.4607 41.3999 48.6071 41.3998V11.7298C48.6071 11.1808 48.3338 10.6543 47.8472 10.2661C47.3606 9.87791 46.7007 9.65983 46.0125 9.65983H35.9179C35.3178 8.65322 34.3013 7.84228 33.0396 7.36351V6.89983C33.0396 6.43062 32.9981 5.9697 32.9185 5.51982H46.0125C48.0769 5.51982 50.0568 6.17409 51.5165 7.33869C52.9762 8.50329 53.7963 10.0828 53.7963 11.7298V13.7998H59.1585C62.1682 13.7998 64.9081 15.1826 66.195 17.3519L72.0761 27.2521C72.5673 28.0828 72.8233 28.9909 72.8233 29.9099V44.8498C72.8233 45.6653 72.622 46.4729 72.2308 47.2263C71.8396 47.9797 71.2663 48.6643 70.5435 49.241C69.8207 49.8176 68.9626 50.275 68.0182 50.5871C67.0739 50.8992 66.0617 51.0598 65.0395 51.0598H58.8437C58.439 52.9925 57.1883 54.7481 55.314 56.0144C53.4397 57.2807 51.0632 57.9756 48.6071 57.9756C46.1511 57.9756 43.7746 57.2807 41.9003 56.0144C40.026 54.7481 38.7753 52.9925 38.3706 51.0598H31.1715C30.7671 52.9955 29.5141 54.7537 27.6359 56.0209C25.7578 57.288 23.3765 57.9818 20.9168 57.9785C18.4571 57.9752 16.0789 57.275 14.2061 56.0028C12.3333 54.7305 11.0877 52.969 10.6915 51.0322C8.76149 50.8879 6.96841 50.1742 5.66316 49.0307C4.3579 47.8873 3.63441 46.3964 3.63426 44.8498ZM58.3974 46.9198H65.0395C65.7277 46.9198 66.3876 46.7017 66.8742 46.3135C67.3608 45.9253 67.6341 45.3988 67.6341 44.8498V44.1598H63.3098C62.6217 44.1598 61.9617 43.9417 61.4752 43.5535C60.9886 43.1653 60.7152 42.6388 60.7152 42.0898C60.7152 41.5408 60.9886 41.0143 61.4752 40.6261C61.9617 40.2379 62.6217 40.0198 63.3098 40.0198H67.6341V31.7398H53.7963V42.5066C55.9386 43.4948 57.5697 45.0593 58.3974 46.9198ZM53.7963 17.9398V27.5998H66.5375L61.5109 19.1239C61.3001 18.7687 60.9669 18.4688 60.5503 18.2591C60.1338 18.0494 59.651 17.9387 59.1585 17.9398H53.7963ZM20.9315 53.8198C22.3078 53.8198 23.6277 53.3836 24.6008 52.6072C25.574 51.8308 26.1207 50.7778 26.1207 49.6798C26.1207 48.5818 25.574 47.5288 24.6008 46.7524C23.6277 45.976 22.3078 45.5398 20.9315 45.5398C19.5553 45.5398 18.2354 45.976 17.2622 46.7524C16.2891 47.5288 15.7423 48.5818 15.7423 49.6798C15.7423 50.7778 16.2891 51.8308 17.2622 52.6072C18.2354 53.3836 19.5553 53.8198 20.9315 53.8198ZM53.7963 49.6798C53.7963 48.5818 53.2496 47.5288 52.2764 46.7524C51.3033 45.976 49.9834 45.5398 48.6071 45.5398C47.2309 45.5398 45.911 45.976 44.9378 46.7524C43.9647 47.5288 43.418 48.5818 43.418 49.6798C43.418 50.7778 43.9647 51.8308 44.9378 52.6072C45.911 53.3836 47.2309 53.8198 48.6071 53.8198C49.9834 53.8198 51.3033 53.3836 52.2764 52.6072C53.2496 51.8308 53.7963 50.7778 53.7963 49.6798ZM8.82343 6.89983C8.82343 6.50791 8.92722 6.1353 9.11057 5.79582L8.82343 6.89983Z" fill="black"/>
</svg>
