<svg width="84" height="50" viewBox="0 0 84 50" fill="none" xmlns="http://www.w3.org/2000/svg">
<path d="M0.441406 0.033557C3.88556 0.033557 7.32972 0.033557 10.7685 0.033557C15.0546 4.29972 19.3312 8.57354 23.5984 12.855C27.8079 8.66232 32.0101 4.46274 36.2048 0.256279C36.3242 0.1652 36.4007 -0.0207841 36.5752 -0.000119191C38.9823 0.00829986 41.3902 -0.0108344 43.7972 0.010596C43.7881 7.86838 43.7881 15.7277 43.7972 23.5885C43.7896 24.6348 44.7287 25.5785 45.7727 25.5839C55.3913 25.5839 65.0094 25.5839 74.6271 25.5839C74.9793 25.5781 75.3241 25.4816 75.6282 25.3037C75.9322 25.1258 76.1853 24.8725 76.3629 24.5682C76.8015 23.8028 76.5925 22.8921 76.6361 22.0586C76.6537 20.9932 75.6833 20.0303 74.6186 20.0518C68.2666 20.0518 61.914 20.0518 55.561 20.0518C53.806 20.0747 52.0885 19.2627 50.9152 17.973C49.9605 16.9312 49.3945 15.592 49.3125 14.1814C49.2635 13.416 49.301 12.6507 49.2911 11.8853C49.2956 9.94355 49.2803 8.00181 49.2979 6.06083C49.3538 3.59099 51.0361 1.27116 53.3483 0.416241C54.0805 0.136698 54.8583 -0.00448068 55.6421 -0.000119191C62.9631 -0.000119191 70.2851 -0.000119191 77.6082 -0.000119191C78.7045 -0.0144705 79.7858 0.256115 80.7462 0.785149C82.0294 1.50295 83.0262 2.64084 83.5688 4.00735C84.0028 5.04443 84.0204 6.181 84.0013 7.28695C75.4934 7.30022 66.9854 7.30226 58.477 7.29308C57.5547 7.26706 56.6906 8.04926 56.6332 8.97153C56.608 9.53102 56.6233 10.092 56.6248 10.6553C56.644 11.7085 57.5433 12.7494 58.6308 12.7341C65.0599 12.7341 71.489 12.7341 77.9181 12.7341C80.4967 12.7792 82.9213 14.6154 83.6913 17.0722C84.0533 18.1054 84.0059 19.2152 83.9975 20.2944C83.9975 22.3864 83.9975 24.4799 83.9975 26.575C84.0036 27.8935 83.5909 29.18 82.8188 30.2488C81.8598 31.5689 80.4339 32.4739 78.8312 32.7799C78.1271 32.9184 77.4069 32.8625 76.6951 32.874C63.2889 32.8781 49.8832 32.8781 36.478 32.874C36.478 25.3622 36.478 17.8501 36.478 10.3377C34.3738 12.4338 32.2728 14.5335 30.1752 16.6367C29.4481 17.337 28.7669 18.0825 28.0643 18.808C27.0487 19.8359 26.0139 20.8439 24.9975 21.8695C24.5383 22.3349 24.079 22.8056 23.5969 23.2472C22.5483 22.2568 21.613 21.1547 20.5744 20.1543C13.8632 13.4466 7.15216 6.73972 0.441406 0.033557Z" fill="url(#paint0_linear_911_31817)"/>
<path d="M42.1737 37.2158C42.7362 36.9357 43.3845 36.9143 43.9991 36.9663C44.5058 37.0153 45.0163 37.2281 45.3369 37.6352C45.6125 37.9751 45.7464 38.406 45.8092 38.8338L45.1517 38.9165C45.0568 38.4718 44.8196 38.0217 44.3864 37.825C43.882 37.5908 43.2949 37.6276 42.7653 37.7431C42.5227 37.8128 42.241 37.9115 42.127 38.1572C42.0359 38.3723 42.2173 38.5682 42.3681 38.6983C43.3309 39.4974 44.2983 40.2903 45.2573 41.0932C45.6997 41.4651 45.9714 42.0629 45.8696 42.6438C45.7832 43.1199 45.4357 43.5094 45.0277 43.7475C44.3756 44.1248 43.5934 44.2067 42.8541 44.1363C42.3405 44.0812 41.8162 43.8975 41.4596 43.5102C41.1427 43.175 40.9904 42.7219 40.9238 42.2749C41.1443 42.2435 41.3654 42.2152 41.5874 42.1922C41.6708 42.63 41.9288 43.0502 42.3428 43.2431C42.9054 43.5102 43.5598 43.4834 44.1583 43.3778C44.4246 43.315 44.7208 43.2247 44.8869 42.9951C45.027 42.7655 44.8234 42.5282 44.6649 42.3782C43.7182 41.5891 42.7645 40.8092 41.8201 40.0194C41.3532 39.6252 41.0983 38.9785 41.2223 38.3738C41.3249 37.8602 41.7076 37.437 42.1737 37.2158Z" fill="#1A3978"/>
<path d="M46.8938 37C47.366 37.0077 47.8383 37 48.3113 37.0038C48.3113 38.0432 48.3113 39.0826 48.3113 40.1219C49.0628 40.1219 49.8142 40.1219 50.5653 40.1219C50.5653 39.0818 50.5599 38.0424 50.5653 37.0023C51.0383 37.0023 51.512 37.0023 51.9866 37.0023C51.9866 39.3749 51.9866 41.7476 51.9866 44.1202H50.5653C50.5653 43.0303 50.5653 41.9405 50.5653 40.8506C49.8144 40.846 49.0644 40.8506 48.3136 40.8506C48.3082 41.9412 48.3136 43.0326 48.3136 44.1233H46.8854C46.8907 41.7483 46.8762 39.3742 46.8938 37Z" fill="#1A3978"/>
<path d="M54.5339 37.0437C55.3758 36.8907 56.2897 36.8907 57.0895 37.2282C57.6658 37.4662 58.0393 38.0594 58.0561 38.6763C58.073 39.7478 58.0562 40.8193 58.0638 41.8862C58.086 42.4579 57.9873 43.084 57.5724 43.5096C57.0948 43.9994 56.3777 44.1349 55.7202 44.1586C55.0138 44.1724 54.2538 44.1219 53.6537 43.7154C53.206 43.4177 52.9795 42.8735 52.9741 42.35C52.9665 41.2517 52.9741 40.1534 52.9741 39.0589C52.9695 38.5836 53.069 38.0846 53.3744 37.7081C53.6606 37.3476 54.0984 37.1455 54.54 37.0476M55.1401 37.7226C54.6418 37.8328 54.4069 38.367 54.3985 38.8347C54.3801 39.9284 54.3985 41.0236 54.39 42.1181C54.3847 42.4633 54.4084 42.8437 54.6434 43.1185C54.886 43.4047 55.2893 43.4736 55.6452 43.4537C55.9468 43.4399 56.2575 43.306 56.4236 43.0457C56.6486 42.7052 56.6532 42.2804 56.6532 41.8862C56.6532 40.866 56.6532 39.8457 56.6532 38.8247C56.6532 38.465 56.5491 38.0594 56.2277 37.8581C55.9062 37.6568 55.4937 37.6376 55.134 37.7172L55.1401 37.7226Z" fill="#1A3978"/>
<path d="M59.0371 37.0047C59.8691 37.0116 60.7026 36.9855 61.5345 37.0215C62.2524 37.0766 63.0316 37.1815 63.601 37.6652C64.1368 38.1244 64.2133 38.915 64.0212 39.5557C63.8765 40.0478 63.4617 40.422 62.9872 40.5927C62.1866 40.8935 61.3141 40.8537 60.4737 40.8453C60.4492 41.9367 60.4737 43.0297 60.463 44.1211C59.9908 44.1211 59.5193 44.1165 59.0486 44.1264C59.0241 41.7538 59.0486 39.3811 59.0379 37.0085M60.463 37.7325C60.463 38.5357 60.463 39.3388 60.463 40.1419C61.0906 40.1213 61.7955 40.2414 62.3412 39.8541C62.9321 39.4294 62.942 38.4352 62.3412 38.0173C61.7932 37.6315 61.0914 37.7524 60.463 37.7325Z" fill="#1A3978"/>
<path d="M64.8355 37.004C65.9308 37.0316 67.0382 36.9275 68.1266 37.1173C68.7389 37.2306 69.4009 37.4839 69.7178 38.0587C69.991 38.5807 69.9734 39.2328 69.7377 39.7647C69.5081 40.2698 68.9869 40.5676 68.4657 40.6962C67.747 40.886 66.9977 40.8454 66.2622 40.8492C66.2622 41.9368 66.2622 43.0244 66.2622 44.112C65.7861 44.1265 65.31 44.1158 64.834 44.1181C64.834 41.7455 64.834 39.3728 64.834 37.0002M66.2606 37.7326C66.2606 38.5358 66.2606 39.3386 66.2606 40.1413C66.8729 40.1221 67.5618 40.2369 68.1044 39.878C68.7228 39.4716 68.7534 38.4544 68.1488 38.0204C67.6008 37.6309 66.8913 37.7525 66.2606 37.7326Z" fill="#1A3978"/>
<path d="M70.6133 37.003C71.0825 37.026 71.583 36.9609 72.0338 37.0337C72.0392 39.3963 72.0338 41.759 72.0338 44.121H70.6133C70.6133 41.7498 70.6133 39.3772 70.6133 37.003Z" fill="#1A3978"/>
<path d="M73.0802 37.0039C73.2782 37.0039 73.4772 37.0039 73.6772 37.0039C74.9732 38.5923 76.2687 40.1807 77.5637 41.7691C77.5637 40.1812 77.5637 38.5928 77.5637 37.0039C77.7696 37.0039 77.977 37.0039 78.1844 37.0039C78.1844 39.3765 78.1844 41.7492 78.1844 44.1218C77.9977 44.1218 77.8117 44.1218 77.6273 44.1172C76.3348 42.5916 75.0383 41.0695 73.7377 39.5511C73.7377 41.0741 73.7377 42.598 73.7377 44.1211H73.0833C73.0807 41.75 73.0797 39.3776 73.0802 37.0039Z" fill="#1A3978"/>
<path d="M79.8601 37.474C80.4434 37.0553 81.1957 36.9895 81.8922 37.0079C82.6576 37.0262 83.4229 37.3416 83.9319 37.9263C83.6487 38.0082 83.3717 38.1697 83.0839 38.1972C82.9038 37.9716 82.6452 37.8221 82.3598 37.7786C81.9159 37.7074 81.4115 37.6906 81.0281 37.9607C80.6852 38.2057 80.5804 38.6542 80.5804 39.0537C80.5804 40.1252 80.5804 41.1967 80.5804 42.2682C80.5704 42.6448 80.712 43.055 81.0488 43.2586C81.4131 43.4722 81.8654 43.4882 82.2733 43.4117C82.5588 43.3543 82.852 43.1239 82.842 42.8086C82.842 42.1573 82.842 41.5075 82.842 40.8554C82.48 40.8554 82.1195 40.8554 81.7583 40.8554C81.7583 40.612 81.7583 40.3701 81.7583 40.1275C82.4956 40.1275 83.2334 40.1275 83.9717 40.1275C83.9717 41.4603 83.9717 42.7933 83.9717 44.1265C83.7589 44.1265 83.5469 44.1265 83.3357 44.1265C83.1826 44.0202 83.0387 43.9115 82.8918 43.8043C82.2902 44.2314 81.5141 44.2084 80.8207 44.0906C80.337 44.0049 79.841 43.812 79.5257 43.4193C79.2494 43.0788 79.1575 42.6272 79.1644 42.1948C79.1644 41.1186 79.1644 40.0418 79.1644 38.9657C79.1721 38.4031 79.3871 37.8092 79.8601 37.474Z" fill="#1A3978"/>
<path d="M0.382988 7.7561C2.82145 10.1884 5.25073 12.6323 7.69455 15.0562C7.71445 21.0069 7.69915 26.9569 7.7045 32.9076C5.26451 32.9076 2.82451 32.9076 0.385284 32.9076C0.377631 24.5243 0.376865 16.1405 0.382988 7.7561Z" fill="url(#paint1_linear_911_31817)"/>
<path d="M0.275391 37.0063C0.560873 37.0024 0.846355 37.0063 1.1326 37.0063C1.90945 38.6082 2.66334 40.2208 3.4509 41.8189C4.11601 40.2162 4.75739 38.6044 5.42938 37.0024C5.76844 37.0093 6.10826 37.0024 6.44732 37.0063C6.44732 39.3789 6.44732 41.7516 6.44732 44.1242H5.02068C5.02068 42.6578 5.02068 41.1913 5.02068 39.7249C4.4367 41.1905 3.85885 42.6585 3.27564 44.1242H2.75136C2.14825 42.7963 1.55432 41.4638 0.94815 40.1374C0.94815 41.4661 0.94815 42.7948 0.94815 44.1242H0.275391C0.275391 41.751 0.275391 39.3784 0.275391 37.0063Z" fill="#1A3978"/>
<path d="M9.54578 37.0055C9.78968 37.0024 10.0341 37.0024 10.279 37.0055C11.0903 39.3781 11.9034 41.7508 12.7182 44.1234H11.0903C10.9219 43.6527 10.7581 43.1797 10.589 42.709C9.79529 42.709 9.0016 42.709 8.20868 42.709C8.04846 43.1794 7.88773 43.6507 7.7265 44.1226H7.06445C7.88952 41.75 8.71663 39.3773 9.54578 37.0047M9.40189 39.2633C9.08196 40.1718 8.77122 41.0841 8.45589 41.9941H10.3433C10.028 41.0872 9.7264 40.1733 9.40189 39.2633Z" fill="#1A3978"/>
<path d="M13.3074 37.0038C14.4325 37.0329 15.5729 36.9173 16.685 37.1347C17.2559 37.2518 17.8606 37.499 18.1683 38.0248C18.4859 38.592 18.4744 39.3711 18.042 39.8778C17.8124 40.1564 17.4886 40.3424 17.1572 40.4794C17.8231 40.6883 18.3527 41.2822 18.4048 41.9894C18.4193 42.7005 18.4048 43.4123 18.4094 44.1233H16.9858C16.9812 43.3747 16.9919 42.6262 16.9812 41.8777C16.9812 41.7016 16.932 41.529 16.8391 41.3794C16.7462 41.2298 16.6133 41.1092 16.4554 41.0312C15.9196 40.7717 15.3073 40.872 14.7325 40.8521C14.7325 41.942 14.7325 43.0326 14.7325 44.1225H13.3066C13.3066 41.7504 13.3066 39.3777 13.3066 37.0046M14.7325 37.7325C14.7325 38.5356 14.7325 39.3387 14.7325 40.1418C15.3494 40.1212 16.0336 40.2375 16.5794 39.8755C17.1917 39.4698 17.2246 38.4657 16.6314 38.0287C16.0834 37.6284 15.367 37.7531 14.7325 37.7325Z" fill="#1A3978"/>
<path d="M20.9294 37.0354C21.7713 36.8907 22.6775 36.8884 23.4711 37.2359C24.0628 37.4869 24.4248 38.1153 24.4217 38.7483C24.4294 39.868 24.4217 40.9885 24.4217 42.1082C24.4263 42.67 24.2472 43.2708 23.7957 43.6336C23.2637 44.0645 22.5481 44.1563 21.8861 44.1609C21.224 44.1655 20.4969 44.0844 19.9451 43.6665C19.5333 43.3604 19.3328 42.8391 19.3328 42.3378C19.3267 41.2411 19.3328 40.1443 19.3328 39.0467C19.3328 38.5791 19.4269 38.087 19.7247 37.7135C20.0224 37.34 20.4755 37.1303 20.9332 37.0346M21.4689 37.7234C20.9623 37.8551 20.7564 38.4168 20.7564 38.8921C20.7464 40.0142 20.7564 41.137 20.7564 42.2598C20.7526 42.6164 20.8413 43.0198 21.1475 43.241C21.3545 43.3724 21.593 43.4457 21.8381 43.4532C22.0832 43.4608 22.3258 43.4023 22.5405 43.2838C22.9231 43.0328 23.0142 42.5361 23.0165 42.1105C23.0165 41.0114 23.0165 39.9124 23.0165 38.8133C23.0165 38.4681 22.9208 38.0831 22.6239 37.8742C22.2825 37.6507 21.8432 37.6323 21.4636 37.7265L21.4689 37.7234Z" fill="#1A3978"/>
<path d="M25.3743 37.004H26.7971C26.7971 38.7843 26.7971 40.5645 26.7971 42.3448C26.7971 42.7489 26.9739 43.1982 27.3765 43.3505C27.8021 43.5035 28.3508 43.512 28.7006 43.1859C28.9999 42.8889 29.0496 42.4404 29.0496 42.0379C29.0496 40.3609 29.0496 38.6832 29.0496 37.0056C29.5241 37.0002 29.9987 37.0056 30.474 37.0056C30.474 38.7077 30.474 40.4102 30.474 42.1129C30.4786 42.6739 30.2995 43.2739 29.8479 43.6367C29.2907 44.0845 28.5406 44.1656 27.8503 44.1618C27.1905 44.1487 26.4787 44.0607 25.9476 43.6344C25.5412 43.3099 25.3651 42.7749 25.3712 42.2675C25.3728 40.5122 25.3738 38.7577 25.3743 37.004Z" fill="#1A3978"/>
<path d="M33.5583 37.0054C33.8016 37.0054 34.0458 37.0054 34.29 37.0054C35.1063 39.3776 35.9199 41.7502 36.7307 44.1234C36.1888 44.1295 35.6462 44.1234 35.1035 44.1234C34.9344 43.6519 34.7714 43.1781 34.6022 42.7074H32.2219C32.0602 43.1779 31.8992 43.6493 31.739 44.1218C31.5178 44.1218 31.2966 44.1218 31.0762 44.1218C31.9023 41.7492 32.7296 39.3765 33.5583 37.0039M32.4684 41.9964H34.3558C34.0435 41.0826 33.73 40.1692 33.4151 39.2564C33.0978 40.1697 32.7822 41.0836 32.4684 41.9979V41.9964Z" fill="#1A3978"/>
<path d="M24.7266 46.2603C24.9509 45.9075 25.3825 45.7506 25.7844 45.7322C26.1609 45.7131 26.5803 45.7361 26.8834 45.9894C27.1031 46.1654 27.1988 46.4433 27.2508 46.7111L27.0518 46.7318C26.9753 46.542 26.9156 46.3338 26.7503 46.2006C26.4349 45.9328 25.9849 45.9328 25.5984 45.9886C25.3634 46.033 25.0825 46.1134 24.9777 46.353C24.9103 46.5236 25.0466 46.6844 25.1644 46.7915C25.7492 47.2806 26.3408 47.762 26.9248 48.2511C27.2125 48.4807 27.397 48.8863 27.2699 49.2514C27.1429 49.6165 26.7617 49.8331 26.4005 49.9265C25.9313 50.0336 25.4055 50.0397 24.97 49.8185C24.6639 49.6655 24.4947 49.3371 24.4473 49.0095L24.6463 48.9981C24.687 49.1814 24.7817 49.3483 24.9181 49.4773C25.0545 49.6063 25.2264 49.6916 25.4116 49.7221C25.8663 49.7986 26.3859 49.7986 26.7809 49.5323C26.999 49.393 26.9339 49.0953 26.7594 48.9498C26.1242 48.385 25.4223 47.8906 24.8116 47.2997C24.5812 47.0119 24.5215 46.578 24.7266 46.2603Z" fill="#747474"/>
<path d="M42.1667 46.1685C42.4246 45.857 42.8448 45.7338 43.2382 45.7292C43.5918 45.7177 43.9798 45.7537 44.2615 45.9909C44.4789 46.1662 44.5738 46.4417 44.6258 46.7081L44.4222 46.7349C44.3457 46.382 44.087 46.0659 43.7211 46.0009C43.2964 45.9243 42.792 45.9305 42.4437 46.2182C42.2631 46.366 42.3419 46.6269 42.5019 46.754C43.0943 47.2591 43.7028 47.749 44.2982 48.2465C44.56 48.46 44.7383 48.8044 44.674 49.1473C44.6028 49.5124 44.273 49.7596 43.9385 49.8752C43.4561 50.0418 42.9313 50.0391 42.4506 49.8675C42.0924 49.7328 41.8743 49.3769 41.8223 49.0103L42.022 48.9958C42.107 49.334 42.358 49.6287 42.7109 49.7014C43.1869 49.8048 43.741 49.8101 44.1597 49.53C44.3771 49.3899 44.3128 49.0922 44.136 48.9475C43.6553 48.5327 43.1578 48.1385 42.6711 47.7314C42.4522 47.5454 42.1958 47.3801 42.0725 47.1107C41.9962 46.9611 41.9644 46.7928 41.9811 46.6257C41.9978 46.4587 42.0622 46.2999 42.1667 46.1685Z" fill="#747474"/>
<path d="M48.8823 46.1517C49.2903 45.704 49.9684 45.6726 50.5256 45.782C50.9718 45.8678 51.2749 46.2803 51.3215 46.7181L51.1218 46.7319C51.0452 46.5528 50.9955 46.3545 50.8432 46.2237C50.537 45.9397 50.0778 45.9359 49.6837 45.9941C49.4495 46.0369 49.1785 46.1127 49.0583 46.3385C48.968 46.5237 49.1249 46.7036 49.2581 46.8184C49.8283 47.2914 50.4008 47.7621 50.9718 48.2358C51.0932 48.3263 51.1932 48.4425 51.2645 48.5762C51.3358 48.7098 51.3767 48.8576 51.3843 49.0088C51.3904 49.315 51.1899 49.5852 50.9389 49.739C50.5363 49.9847 50.0449 50.0375 49.5849 49.987C49.0545 49.964 48.5708 49.566 48.5195 49.0249L48.7216 48.9981C48.7585 49.1813 48.8499 49.349 48.9839 49.4792C49.118 49.6094 49.2883 49.696 49.4724 49.7275C49.9362 49.8041 50.4766 49.8155 50.8723 49.5239C51.085 49.3709 50.9855 49.0777 50.8126 48.9384C50.2202 48.4348 49.6102 47.9519 49.0178 47.449C48.6473 47.1329 48.5425 46.5168 48.8823 46.1517Z" fill="#747474"/>
<path d="M0.42842 45.749C0.652673 45.749 0.877692 45.749 1.10194 45.749C1.10194 47.1583 1.10194 48.5676 1.10194 49.9769C0.872334 49.9769 0.649612 49.9769 0.423828 49.97C0.433778 48.5625 0.42842 47.1558 0.42842 45.749Z" fill="#747474"/>
<path d="M5.02084 45.7445C5.15249 45.7254 5.27418 45.7529 5.34077 45.8785C6.16073 46.8928 6.98197 47.9054 7.80449 48.9162C7.80449 47.8608 7.80449 46.8046 7.80449 45.7491H7.97823C7.97823 47.1627 7.98358 48.5756 7.97823 49.9885L7.77617 49.9586C6.91743 48.9591 6.07169 47.9488 5.21678 46.9461C5.21678 47.958 5.21678 48.9698 5.21678 49.9816L5.02926 49.9785C5.00553 48.5657 5.0262 47.1543 5.02084 45.7445Z" fill="#747474"/>
<path d="M11.6602 45.7491C11.9242 45.7491 12.1883 45.7491 12.4523 45.7491C12.8128 46.839 13.1695 47.9296 13.5376 49.0164C13.9364 47.9342 14.2915 46.8359 14.6857 45.7544L14.8724 45.7422C14.3895 47.1535 13.8904 48.5595 13.409 49.9716C13.3057 49.9716 13.2016 49.9716 13.0983 49.9777C12.6202 48.5684 12.1408 47.1589 11.6602 45.7491Z" fill="#747474"/>
<path d="M18.5488 49.9785C18.5488 48.5686 18.5488 47.1588 18.5488 45.749C19.3142 45.749 20.0796 45.749 20.8449 45.749C20.8449 45.8064 20.8449 45.9205 20.8449 45.9786C20.3046 45.9786 19.7635 45.9786 19.2239 45.9786V47.6977C19.618 47.6977 20.013 47.6977 20.4079 47.6977C20.4079 47.7543 20.4079 47.8676 20.4079 47.9273C20.013 47.9326 19.618 47.9273 19.2231 47.9273C19.2231 48.5329 19.2231 49.1383 19.2231 49.7435C19.7635 49.7435 20.3031 49.7435 20.8434 49.7435C20.8434 49.8009 20.8434 49.9149 20.8434 49.9731L18.5488 49.9785Z" fill="#747474"/>
<path d="M31.033 45.7483C31.8918 45.7483 32.7508 45.7483 33.61 45.7483C33.61 45.8103 33.61 45.935 33.61 45.997C33.2977 45.997 32.9862 45.997 32.6747 45.997C32.6747 47.3234 32.6747 48.649 32.6747 49.977H32.0066C32.0066 48.6506 32.0066 47.325 32.0066 45.997C31.6813 45.997 31.3568 45.997 31.0322 45.997C31.0299 45.9343 31.0322 45.8103 31.033 45.7483Z" fill="#747474"/>
<path d="M37.3184 45.749C37.5424 45.749 37.7669 45.749 37.9919 45.749C37.9919 47.1588 37.9957 48.5694 37.9919 49.9792C37.7684 49.9792 37.5441 49.9792 37.3214 49.9792C37.3194 48.5689 37.3184 47.1588 37.3184 45.749Z" fill="#747474"/>
<path d="M55.266 45.749C56.0313 45.749 56.7967 45.749 57.5621 45.749C57.5621 45.8064 57.556 45.922 57.5544 45.9786C57.0187 45.9786 56.4775 45.9786 55.9395 45.9786C55.9395 46.5522 55.9395 47.1254 55.9395 47.6984C56.3337 47.6984 56.7286 47.6984 57.1235 47.6984C57.1235 47.7566 57.1235 47.8714 57.1235 47.928C56.7294 47.928 56.3344 47.928 55.9403 47.928C55.9403 48.5337 55.9403 49.1391 55.9403 49.7442C56.476 49.7442 57.0194 49.7442 57.5598 49.7442C57.5598 49.8017 57.5598 49.9165 57.5598 49.9739H55.2637C55.2652 48.5666 55.266 47.1583 55.266 45.749Z" fill="#747474"/>
<path d="M61.2363 45.7483H61.5968C62.0989 46.8045 62.6071 47.8584 63.1077 48.9154C63.5386 47.8638 63.9725 46.8122 64.3896 45.7552C64.5427 45.7475 64.7012 45.7453 64.8588 45.7468C64.8588 47.1543 64.8535 48.5618 64.8626 49.9693C64.6347 49.982 64.4063 49.982 64.1784 49.9693C64.1907 48.9078 64.1784 47.8462 64.1838 46.7846C63.7636 47.8454 63.3419 48.9055 62.9309 49.9701C62.8645 49.9701 62.7987 49.9732 62.7334 49.9793C62.3073 49.0205 61.8777 48.0633 61.4445 47.1076C61.4407 48.0651 61.4445 49.021 61.4445 49.9793H61.2394C61.2348 48.5679 61.2371 47.1581 61.2363 45.7483Z" fill="#747474"/>
<path d="M68.737 45.749C69.5024 45.749 70.2678 45.749 71.0331 45.749C71.0285 45.8072 71.0201 45.9243 71.0155 45.9786C70.4798 45.971 69.944 45.9786 69.4082 45.9786C69.4082 46.5522 69.4082 47.1254 69.4082 47.6984C69.8024 47.6984 70.1973 47.6984 70.5923 47.6984C70.5923 47.7558 70.5923 47.8706 70.5923 47.928C70.1973 47.928 69.8032 47.928 69.409 47.928C69.409 48.5334 69.409 49.1388 69.409 49.7442C69.9448 49.7442 70.4882 49.7442 71.0285 49.7442C71.0285 49.8017 71.0285 49.9157 71.0285 49.9739H68.7324C68.7345 48.5671 68.736 47.1588 68.737 45.749Z" fill="#747474"/>
<path d="M74.7057 45.7484H74.9185C75.7757 46.8036 76.6326 47.8595 77.4893 48.9162C77.4893 47.8577 77.4893 46.7992 77.4893 45.7407L77.6616 45.7606C77.6616 47.1658 77.6616 48.5711 77.6616 49.9763H77.4748C76.613 48.9683 75.7604 47.9534 74.9001 46.9446C74.9001 47.9544 74.9001 48.9639 74.9001 49.9732H74.7065C74.7034 48.5688 74.7065 47.1582 74.7057 45.7484Z" fill="#747474"/>
<path d="M81.3943 45.7483C82.2531 45.7483 83.1121 45.7483 83.9713 45.7483C83.9713 45.8103 83.9713 45.935 83.9713 45.997C83.6591 45.997 83.3476 45.997 83.0361 45.997C83.0361 47.3234 83.0361 48.649 83.0361 49.977H82.3679C82.3679 48.6506 82.3679 47.325 82.3679 45.997C82.0426 45.997 81.7173 45.997 81.3936 45.997C81.3913 45.9335 81.3936 45.8103 81.3943 45.7483Z" fill="#747474"/>
<defs>
<linearGradient id="paint0_linear_911_31817" x1="2.92809" y1="-6.61826" x2="88.5575" y2="29.4161" gradientUnits="userSpaceOnUse">
<stop stop-color="#0F2A62"/>
<stop offset="1" stop-color="#2B519C"/>
</linearGradient>
<linearGradient id="paint1_linear_911_31817" x1="2.01093" y1="4.36705" x2="4.72263" y2="30.5855" gradientUnits="userSpaceOnUse">
<stop stop-color="#F86503"/>
<stop offset="1" stop-color="#FAAB20"/>
</linearGradient>
</defs>
</svg>
