<svg width="82" height="49" viewBox="0 0 82 49" fill="none" xmlns="http://www.w3.org/2000/svg">
<path d="M0.10556 7.60114C2.4938 9.98483 4.87305 12.3798 7.26653 14.7552C7.28602 20.5869 7.27103 26.4179 7.27628 32.2496C4.88654 32.2496 2.4968 32.2496 0.107809 32.2496C0.100313 24.034 0.0995636 15.8178 0.10556 7.60114Z" fill="white"/>
<path d="M0 36.2662C0.279603 36.2625 0.559205 36.2662 0.839557 36.2662C1.60041 37.8361 2.33877 39.4165 3.11011 40.9826C3.76152 39.412 4.38968 37.8323 5.04784 36.2625C5.37991 36.2692 5.71274 36.2625 6.04481 36.2662C6.04481 38.5914 6.04481 40.9166 6.04481 43.2418H4.64755C4.64755 41.8047 4.64755 40.3675 4.64755 38.9304C4.0756 40.3668 3.50965 41.8054 2.93845 43.2418H2.42497C1.83428 41.9404 1.25259 40.6346 0.658902 39.3347C0.658902 40.6368 0.658902 41.9389 0.658902 43.2418H0C0 40.9161 0 38.5909 0 36.2662Z" fill="white"/>
<path d="M9.07866 36.2655C9.31753 36.2625 9.5569 36.2625 9.79678 36.2655C10.5914 38.5907 11.3877 40.9159 12.1858 43.2411H10.5914C10.4264 42.7798 10.266 42.3162 10.1004 41.855C9.32303 41.855 8.54569 41.855 7.7691 41.855C7.61218 42.316 7.45476 42.7778 7.29685 43.2403H6.64844C7.45651 40.9151 8.26658 38.5899 9.07866 36.2647M8.93773 38.4782C8.6244 39.3685 8.32006 40.2626 8.01122 41.1544H9.85974C9.55091 40.2656 9.25556 39.37 8.93773 38.4782Z" fill="white"/>
<path d="M12.7644 36.264C13.8663 36.2925 14.9833 36.1792 16.0724 36.3922C16.6316 36.507 17.2238 36.7493 17.5252 37.2646C17.8362 37.8203 17.825 38.5839 17.4015 39.0805C17.1766 39.3535 16.8595 39.5357 16.5349 39.67C17.1871 39.8748 17.7058 40.4568 17.7568 41.1499C17.771 41.8467 17.7568 42.5442 17.7613 43.241H16.367C16.3625 42.5075 16.373 41.7739 16.3625 41.0404C16.3626 40.8678 16.3144 40.6986 16.2234 40.552C16.1324 40.4054 16.0022 40.2872 15.8475 40.2108C15.3228 39.9565 14.7231 40.0548 14.1602 40.0353C14.1602 41.1034 14.1602 42.1722 14.1602 43.2403H12.7637C12.7637 40.9156 12.7637 38.5904 12.7637 36.2647M14.1602 36.978C14.1602 37.7651 14.1602 38.5522 14.1602 39.3392C14.7644 39.319 15.4345 39.433 15.969 39.0782C16.5687 38.6807 16.6009 37.6966 16.02 37.2683C15.4832 36.876 14.7816 36.9983 14.1602 36.978Z" fill="white"/>
<path d="M20.2284 36.2947C21.053 36.153 21.9405 36.1507 22.7179 36.4913C23.2973 36.7373 23.6519 37.3531 23.6489 37.9734C23.6564 39.0707 23.6489 40.1688 23.6489 41.2662C23.6534 41.8167 23.478 42.4055 23.0357 42.761C22.5147 43.1833 21.8139 43.2733 21.1655 43.2778C20.517 43.2823 19.8049 43.2028 19.2645 42.7933C18.8612 42.4933 18.6648 41.9825 18.6648 41.4912C18.6588 40.4163 18.6648 39.3415 18.6648 38.2659C18.6648 37.8076 18.757 37.3253 19.0486 36.9593C19.3402 36.5933 19.7839 36.3878 20.2322 36.294M20.7569 36.9691C20.2607 37.0981 20.059 37.6486 20.059 38.1144C20.0493 39.214 20.059 40.3143 20.059 41.4147C20.0553 41.7642 20.1422 42.1595 20.4421 42.3762C20.6448 42.505 20.8784 42.5769 21.1185 42.5843C21.3585 42.5917 21.5961 42.5343 21.8064 42.4183C22.1812 42.1722 22.2704 41.6854 22.2726 41.2684C22.2726 40.1913 22.2726 39.1142 22.2726 38.0371C22.2726 37.6989 22.1789 37.3216 21.8881 37.1168C21.5537 36.8978 21.1235 36.8798 20.7517 36.9721L20.7569 36.9691Z" fill="white"/>
<path d="M24.5832 36.264H25.9767C25.9767 38.0086 25.9767 39.7532 25.9767 41.4979C25.9767 41.8939 26.1499 42.3342 26.5442 42.4835C26.961 42.6335 27.4984 42.6417 27.841 42.3222C28.1341 42.0312 28.1828 41.5916 28.1828 41.1971C28.1828 39.5537 28.1828 37.9096 28.1828 36.2655C28.6476 36.2602 29.1123 36.2655 29.5778 36.2655C29.5778 37.9336 29.5778 39.602 29.5778 41.2706C29.5823 41.8204 29.4069 42.4085 28.9647 42.764C28.419 43.2028 27.6843 43.2823 27.0082 43.2785C26.362 43.2658 25.6649 43.1795 25.1447 42.7617C24.7466 42.4437 24.5742 41.9194 24.5802 41.4221C24.5817 39.702 24.5827 37.9826 24.5832 36.264Z" fill="white"/>
<path d="M32.5989 36.2655C32.8373 36.2655 33.0764 36.2655 33.3156 36.2655C34.1151 38.5902 34.912 40.9154 35.706 43.241C35.1753 43.247 34.6439 43.241 34.1124 43.241C33.9467 42.779 33.7871 42.3147 33.6214 41.8534H31.2901C31.1317 42.3145 30.974 42.7765 30.8171 43.2395C30.6005 43.2395 30.3839 43.2395 30.168 43.2395C30.977 40.9144 31.7874 38.5892 32.5989 36.264M31.5315 41.1566H33.38C33.0742 40.2611 32.7671 39.366 32.4588 38.4714C32.1479 39.3665 31.8388 40.2621 31.5315 41.1581V41.1566Z" fill="white"/>
<path d="M0.162109 0.0329738C3.53533 0.0329738 6.90855 0.0329738 10.2765 0.0329738C14.4743 4.21382 18.6629 8.40216 22.8421 12.598C26.965 8.48916 31.0806 4.37358 35.1889 0.251242C35.3058 0.161984 35.3808 -0.0202806 35.5517 -2.89166e-05C37.9092 0.00822176 40.2675 -0.0105298 42.625 0.0104719C42.616 7.7111 42.616 15.4132 42.625 23.1169C42.6175 24.1422 43.5372 25.067 44.5597 25.0723C53.9802 25.0723 63.4003 25.0723 72.8198 25.0723C73.1648 25.0666 73.5025 24.972 73.8003 24.7977C74.0981 24.6233 74.3459 24.3751 74.5199 24.0769C74.9494 23.3269 74.7448 22.4343 74.7875 21.6175C74.8047 20.5734 73.8542 19.6298 72.8115 19.6508C66.5903 19.6508 60.3686 19.6508 54.1464 19.6508C52.4275 19.6733 50.7454 18.8775 49.5963 17.6137C48.6613 16.5927 48.1069 15.2803 48.0266 13.8979C47.9786 13.1478 48.0154 12.3977 48.0056 11.6477C48.0101 9.74477 47.9951 7.84186 48.0124 5.93971C48.0671 3.51926 49.7147 1.24582 51.9793 0.408004C52.6964 0.134052 53.4582 -0.00430318 54.2258 -2.89166e-05C61.3961 -2.89166e-05 68.5673 -2.89166e-05 75.7395 -2.89166e-05C76.8133 -0.0140932 77.8723 0.251081 78.8129 0.769534C80.0696 1.47298 81.0459 2.58811 81.5774 3.92729C82.0024 4.94362 82.0197 6.05747 82.0009 7.1413C73.6683 7.1543 65.3355 7.15631 57.0024 7.1473C56.0991 7.1218 55.2528 7.88837 55.1966 8.79219C55.1718 9.34048 55.1868 9.89028 55.1883 10.4423C55.2071 11.4744 56.0879 12.4945 57.1531 12.4795C63.4497 12.4795 69.7464 12.4795 76.0431 12.4795C78.5685 12.5237 80.9433 14.3231 81.6973 16.7308C82.0519 17.7434 82.0054 18.831 81.9972 19.8886C81.9972 21.9388 81.9972 23.9904 81.9972 26.0436C82.0032 27.3358 81.599 28.5964 80.8428 29.6439C79.9036 30.9376 78.507 31.8246 76.9374 32.1243C76.2477 32.2601 75.5424 32.2053 74.8452 32.2166C61.7151 32.2206 48.5856 32.2206 35.4565 32.2166C35.4565 24.855 35.4565 17.4931 35.4565 10.131C33.3956 12.1852 31.3379 14.2429 29.2835 16.3041C28.5714 16.9904 27.9042 17.7209 27.2161 18.432C26.2214 19.4393 25.2079 20.4271 24.2124 21.4322C23.7627 21.8883 23.3129 22.3495 22.8406 22.7823C21.8137 21.8118 20.8977 20.7317 19.8805 19.7513C13.3074 13.1778 6.73464 6.60501 0.162109 0.0329738Z" fill="white"/>
<path d="M41.0346 36.4717C41.5856 36.1972 42.2205 36.1762 42.8225 36.2272C43.3187 36.2752 43.8187 36.4837 44.1328 36.8828C44.4026 37.2158 44.5338 37.6381 44.5953 38.0574L43.9514 38.1384C43.8584 37.7026 43.626 37.2615 43.2018 37.0688C42.7078 36.8393 42.1328 36.8753 41.6141 36.9885C41.3765 37.0568 41.1006 37.1535 40.9889 37.3943C40.8997 37.6051 41.0774 37.7971 41.2251 37.9246C42.1681 38.7077 43.1156 39.4847 44.0548 40.2715C44.4881 40.6361 44.7542 41.2219 44.6545 41.7912C44.5698 42.2577 44.2295 42.6395 43.8299 42.8727C43.1913 43.2425 42.4252 43.3228 41.701 43.2538C41.1981 43.1998 40.6846 43.0198 40.3353 42.6402C40.0249 42.3117 39.8758 41.8677 39.8105 41.4296C40.0264 41.3989 40.2431 41.3711 40.4605 41.3486C40.5422 41.7777 40.7948 42.1894 41.2003 42.3785C41.7513 42.6402 42.3922 42.614 42.9784 42.5105C43.2392 42.449 43.5293 42.3605 43.692 42.1354C43.8292 41.9104 43.6298 41.6779 43.4746 41.5309C42.5473 40.7576 41.6133 39.9933 40.6883 39.2192C40.2311 38.8329 39.9815 38.1991 40.1029 37.6066C40.2033 37.1033 40.5781 36.6885 41.0346 36.4717Z" fill="white"/>
<path d="M45.6592 36.2602C46.1217 36.2677 46.5842 36.2602 47.0475 36.2639C47.0475 37.2825 47.0475 38.3011 47.0475 39.3197C47.7836 39.3197 48.5195 39.3197 49.2551 39.3197C49.2551 38.3004 49.2498 37.2818 49.2551 36.2624C49.7183 36.2624 50.1824 36.2624 50.6471 36.2624C50.6471 38.5876 50.6471 40.9128 50.6471 43.238H49.2551C49.2551 42.1699 49.2551 41.1018 49.2551 40.0338C48.5197 40.0293 47.7851 40.0338 47.0497 40.0338C47.0445 41.1026 47.0497 42.1722 47.0497 43.241H45.651C45.6562 40.9136 45.642 38.5869 45.6592 36.2602Z" fill="white"/>
<path d="M53.1404 36.3029C53.965 36.1529 54.86 36.1529 55.6433 36.4837C56.2078 36.717 56.5736 37.2983 56.5901 37.9028C56.6066 38.9529 56.5901 40.003 56.5976 41.0486C56.6193 41.6089 56.5226 42.2224 56.1163 42.6394C55.6486 43.1195 54.9462 43.2522 54.3023 43.2755C53.6104 43.289 52.866 43.2395 52.2784 42.8412C51.8398 42.5494 51.618 42.0161 51.6127 41.5031C51.6052 40.4268 51.6127 39.3504 51.6127 38.2778C51.6082 37.812 51.7057 37.323 52.0047 36.954C52.2851 36.6007 52.7139 36.4027 53.1464 36.3067M53.7341 36.9682C53.2461 37.0762 53.016 37.5998 53.0077 38.0581C52.9897 39.1299 53.0077 40.2032 52.9995 41.2758C52.9942 41.6141 53.0175 41.9869 53.2476 42.2562C53.4852 42.5367 53.8803 42.6042 54.2288 42.5847C54.5242 42.5712 54.8285 42.4399 54.9912 42.1849C55.2116 41.8511 55.2161 41.4348 55.2161 41.0486C55.2161 40.0487 55.2161 39.0489 55.2161 38.0483C55.2161 37.6958 55.1141 37.2983 54.7993 37.101C54.4844 36.9037 54.0804 36.885 53.7281 36.963L53.7341 36.9682Z" fill="white"/>
<path d="M57.5508 36.2647C58.3656 36.2714 59.1819 36.2459 59.9967 36.2812C60.6999 36.3352 61.463 36.438 62.0207 36.912C62.5454 37.362 62.6204 38.1368 62.4322 38.7646C62.2905 39.2469 61.8842 39.6137 61.4195 39.781C60.6354 40.0758 59.7809 40.0368 58.9578 40.0285C58.9338 41.0981 58.9578 42.1692 58.9473 43.2388C58.4848 43.2388 58.023 43.2343 57.562 43.244C57.538 40.9188 57.562 38.5936 57.5515 36.2684M58.9473 36.978C58.9473 37.7651 58.9473 38.5521 58.9473 39.3392C59.562 39.3189 60.2524 39.4367 60.7868 39.0572C61.3655 38.6409 61.3753 37.6666 60.7868 37.257C60.2501 36.879 59.5627 36.9975 58.9473 36.978Z" fill="white"/>
<path d="M63.23 36.2639C64.3027 36.2909 65.3874 36.1889 66.4533 36.3749C67.053 36.486 67.7014 36.7342 68.0117 37.2975C68.2794 37.8091 68.2621 38.4481 68.0312 38.9694C67.8064 39.4645 67.2959 39.7562 66.7854 39.8822C66.0815 40.0682 65.3476 40.0285 64.6273 40.0322C64.6273 41.0981 64.6273 42.1639 64.6273 43.2298C64.161 43.244 63.6948 43.2335 63.2285 43.2358C63.2285 40.9106 63.2285 38.5854 63.2285 36.2602M64.6258 36.978C64.6258 37.7651 64.6258 38.5519 64.6258 39.3384C65.2255 39.3197 65.9001 39.4322 66.4316 39.0804C67.0373 38.6821 67.0672 37.6853 66.4751 37.26C65.9383 36.8782 65.2435 36.9975 64.6258 36.978Z" fill="white"/>
<path d="M68.8887 36.2632C69.3482 36.2857 69.8384 36.2219 70.2799 36.2932C70.2852 38.6086 70.2799 40.9241 70.2799 43.2388H68.8887C68.8887 40.9151 68.8887 38.5899 68.8887 36.2632Z" fill="white"/>
<path d="M71.3048 36.2639C71.4987 36.2639 71.6936 36.2639 71.8895 36.2639C73.1588 37.8205 74.4277 39.3772 75.696 40.9338C75.696 39.3777 75.696 37.821 75.696 36.2639C75.8976 36.2639 76.1008 36.2639 76.3039 36.2639C76.3039 38.5891 76.3039 40.9143 76.3039 43.2395C76.121 43.2395 75.9389 43.2395 75.7582 43.235C74.4924 41.7399 73.2226 40.2482 71.9487 38.7601C71.9487 40.2527 71.9487 41.7461 71.9487 43.2387H71.3078C71.3053 40.915 71.3043 38.5901 71.3048 36.2639Z" fill="white"/>
<path d="M77.9435 36.7245C78.5147 36.3142 79.2515 36.2497 79.9337 36.2677C80.6833 36.2857 81.4329 36.5947 81.9314 37.1678C81.654 37.248 81.3827 37.4063 81.1008 37.4333C80.9244 37.2122 80.6712 37.0657 80.3917 37.023C79.9569 36.9532 79.4629 36.9367 79.0874 37.2015C78.7515 37.4415 78.6488 37.8811 78.6488 38.2726C78.6488 39.3227 78.6488 40.3728 78.6488 41.4229C78.6391 41.7919 78.7778 42.1939 79.1076 42.3934C79.4644 42.6027 79.9074 42.6185 80.307 42.5434C80.5866 42.4872 80.8737 42.2614 80.8639 41.9524C80.8639 41.3141 80.8639 40.6773 80.8639 40.0382C80.5094 40.0382 80.1563 40.0382 79.8025 40.0382C79.8025 39.7997 79.8025 39.5627 79.8025 39.3249C80.5246 39.3249 81.2472 39.3249 81.9703 39.3249C81.9703 40.631 81.9703 41.9374 81.9703 43.244C81.7619 43.244 81.5543 43.244 81.3474 43.244C81.1975 43.1397 81.0566 43.0332 80.9126 42.9282C80.3235 43.3468 79.5634 43.3243 78.8842 43.2088C78.4105 43.1247 77.9247 42.9357 77.6159 42.5509C77.3453 42.2172 77.2553 41.7746 77.2621 41.3508C77.2621 40.2963 77.2621 39.2409 77.2621 38.1863C77.2696 37.635 77.4802 37.053 77.9435 36.7245Z" fill="white"/>
<path d="M23.9474 45.3352C24.1671 44.9894 24.5898 44.8356 24.9834 44.8176C25.3522 44.7989 25.763 44.8214 26.0598 45.0697C26.275 45.2422 26.3687 45.5145 26.4196 45.777L26.2247 45.7972C26.1498 45.6112 26.0913 45.4072 25.9294 45.2767C25.6206 45.0142 25.1798 45.0142 24.8012 45.0689C24.5711 45.1124 24.296 45.1912 24.1933 45.4259C24.1273 45.5932 24.2608 45.7507 24.3762 45.8557C24.9489 46.335 25.5284 46.8068 26.1003 47.2861C26.3822 47.5111 26.5628 47.9086 26.4384 48.2664C26.3139 48.6242 25.9406 48.8365 25.5868 48.928C25.1273 49.033 24.6123 49.039 24.1858 48.8222C23.886 48.6722 23.7203 48.3504 23.6738 48.0294L23.8687 48.0182C23.9086 48.1978 24.0013 48.3613 24.1349 48.4878C24.2685 48.6143 24.4369 48.6978 24.6183 48.7277C25.0636 48.8027 25.5726 48.8027 25.9594 48.5417C26.173 48.4052 26.1093 48.1134 25.9384 47.9709C25.3162 47.4174 24.6288 46.9328 24.0306 46.3538C23.805 46.0717 23.7465 45.6465 23.9474 45.3352Z" fill="white"/>
<path d="M41.0287 45.2452C41.2813 44.9399 41.6929 44.8191 42.0782 44.8146C42.4245 44.8034 42.8045 44.8386 43.0804 45.0712C43.2933 45.2429 43.3862 45.5129 43.4372 45.774L43.2378 45.8002C43.1629 45.4544 42.9095 45.1447 42.5512 45.0809C42.1351 45.0059 41.6412 45.0119 41.3001 45.2939C41.1232 45.4387 41.2004 45.6945 41.3571 45.819C41.9372 46.314 42.5332 46.794 43.1164 47.2816C43.3727 47.4909 43.5474 47.8284 43.4844 48.1644C43.4147 48.5222 43.0916 48.7645 42.7641 48.8777C42.2916 49.0411 41.7776 49.0384 41.3068 48.8702C40.956 48.7382 40.7424 48.3894 40.6914 48.0301L40.8871 48.0159C40.9703 48.3474 41.2161 48.6362 41.5617 48.7075C42.028 48.8087 42.5707 48.814 42.9807 48.5394C43.1936 48.4022 43.1306 48.1104 42.9575 47.9686C42.4867 47.5621 41.9995 47.1758 41.5227 46.7768C41.3083 46.5945 41.0572 46.4325 40.9365 46.1685C40.8617 46.022 40.8306 45.857 40.847 45.6933C40.8633 45.5296 40.9264 45.374 41.0287 45.2452Z" fill="white"/>
<path d="M47.6034 45.2287C48.0029 44.7899 48.667 44.7591 49.2128 44.8664C49.6498 44.9504 49.9466 45.3547 49.9923 45.7837L49.7967 45.7972C49.7217 45.6217 49.673 45.4274 49.5238 45.2992C49.224 45.0209 48.7742 45.0171 48.3882 45.0741C48.1588 45.1161 47.8935 45.1904 47.7758 45.4117C47.6873 45.5932 47.841 45.7694 47.9714 45.882C48.5299 46.3455 49.0906 46.8068 49.6498 47.2711C49.7687 47.3598 49.8667 47.4736 49.9365 47.6046C50.0064 47.7356 50.0464 47.8804 50.0538 48.0286C50.0598 48.3287 49.8634 48.5934 49.6175 48.7442C49.2233 48.985 48.742 49.0367 48.2915 48.9872C47.772 48.9647 47.2983 48.5747 47.248 48.0444L47.4459 48.0181C47.4821 48.1976 47.5716 48.362 47.7029 48.4896C47.8342 48.6172 48.0009 48.702 48.1813 48.7329C48.6356 48.8079 49.1648 48.8192 49.5523 48.5334C49.7607 48.3834 49.6633 48.0961 49.4939 47.9596C48.9137 47.4661 48.3162 46.9928 47.736 46.5C47.3732 46.1902 47.2705 45.5864 47.6034 45.2287Z" fill="white"/>
<path d="M0.149029 44.8342C0.368663 44.8342 0.589047 44.8342 0.808681 44.8342C0.808681 46.2153 0.808681 47.5964 0.808681 48.9775C0.5838 48.9775 0.365665 48.9775 0.144531 48.9708C0.154276 47.5914 0.149029 46.2128 0.149029 44.8342Z" fill="white"/>
<path d="M4.64577 44.8297C4.77471 44.8109 4.89389 44.8379 4.95911 44.9609C5.76219 45.955 6.56651 46.9473 7.37209 47.9379C7.37209 46.9036 7.37209 45.8685 7.37209 44.8342H7.54225C7.54225 46.2195 7.54749 47.6041 7.54225 48.9888L7.34435 48.9595C6.50329 47.9799 5.67498 46.9898 4.83767 46.0073C4.83767 46.9988 4.83767 47.9904 4.83767 48.982L4.65402 48.979C4.63078 47.5944 4.65102 46.2113 4.64577 44.8297Z" fill="white"/>
<path d="M11.1484 44.8341C11.4071 44.8341 11.6657 44.8341 11.9243 44.8341C12.2773 45.9022 12.6267 46.9711 12.9872 48.0362C13.3778 46.9756 13.7256 45.8992 14.1116 44.8394L14.2945 44.8274C13.8215 46.2105 13.3328 47.5884 12.8613 48.9722C12.7601 48.9722 12.6581 48.9722 12.5569 48.9782C12.0887 47.5971 11.6192 46.2158 11.1484 44.8341Z" fill="white"/>
<path d="M17.8965 48.979C17.8965 47.5974 17.8965 46.2158 17.8965 44.8342C18.6461 44.8342 19.3957 44.8342 20.1453 44.8342C20.1453 44.8904 20.1453 45.0022 20.1453 45.0592C19.6161 45.0592 19.0861 45.0592 18.5576 45.0592V46.7438C18.9437 46.7438 19.3305 46.7438 19.7173 46.7438C19.7173 46.7993 19.7173 46.9103 19.7173 46.9688C19.3305 46.9741 18.9437 46.9688 18.5569 46.9688C18.5569 47.5624 18.5569 48.1557 18.5569 48.7487C19.0861 48.7487 19.6146 48.7487 20.1438 48.7487C20.1438 48.805 20.1438 48.9168 20.1438 48.9738L17.8965 48.979Z" fill="white"/>
<path d="M30.1228 44.8334C30.9639 44.8334 31.8052 44.8334 32.6467 44.8334C32.6467 44.8941 32.6467 45.0164 32.6467 45.0771C32.3409 45.0771 32.0358 45.0771 31.7307 45.0771C31.7307 46.377 31.7307 47.6761 31.7307 48.9775H31.0763C31.0763 47.6776 31.0763 46.3785 31.0763 45.0771C30.7577 45.0771 30.4399 45.0771 30.1221 45.0771C30.1198 45.0156 30.1221 44.8941 30.1228 44.8334Z" fill="white"/>
<path d="M36.2793 44.8342C36.4987 44.8342 36.7186 44.8342 36.9389 44.8342C36.9389 46.2158 36.9427 47.5981 36.9389 48.9798C36.7201 48.9798 36.5004 48.9798 36.2823 48.9798C36.2803 47.5976 36.2793 46.2158 36.2793 44.8342Z" fill="white"/>
<path d="M53.8577 44.8342C54.6073 44.8342 55.3569 44.8342 56.1065 44.8342C56.1065 44.8904 56.1005 45.0037 56.099 45.0592C55.5743 45.0592 55.0443 45.0592 54.5174 45.0592C54.5174 45.6212 54.5174 46.183 54.5174 46.7446C54.9034 46.7446 55.2902 46.7446 55.677 46.7446C55.677 46.8016 55.677 46.9141 55.677 46.9696C55.291 46.9696 54.9042 46.9696 54.5181 46.9696C54.5181 47.5631 54.5181 48.1564 54.5181 48.7495C55.0428 48.7495 55.5751 48.7495 56.1043 48.7495C56.1043 48.8057 56.1043 48.9183 56.1043 48.9745H53.8555C53.857 47.5954 53.8577 46.2153 53.8577 44.8342Z" fill="white"/>
<path d="M59.7031 44.8334H60.0562C60.5479 45.8685 61.0457 46.9013 61.5359 47.9372C61.9579 46.9066 62.383 45.876 62.7915 44.8402C62.9414 44.8327 63.0966 44.8304 63.251 44.8319C63.251 46.2113 63.2458 47.5906 63.2548 48.97C63.0315 48.9824 62.8078 48.9824 62.5846 48.97C62.5966 47.9297 62.5846 46.8893 62.5899 45.849C62.1783 46.8886 61.7653 47.9274 61.3628 48.9708C61.2978 48.9708 61.2333 48.9738 61.1694 48.9798C60.7521 48.0402 60.3313 47.1021 59.907 46.1655C59.9033 47.1039 59.907 48.0407 59.907 48.9798H59.7061C59.7016 47.5966 59.7039 46.215 59.7031 44.8334Z" fill="white"/>
<path d="M67.0514 44.8342C67.801 44.8342 68.5506 44.8342 69.3002 44.8342C69.2957 44.8912 69.2874 45.0059 69.2829 45.0592C68.7582 45.0517 68.2335 45.0592 67.7088 45.0592C67.7088 45.6212 67.7088 46.183 67.7088 46.7446C68.0948 46.7446 68.4816 46.7446 68.8684 46.7446C68.8684 46.8008 68.8684 46.9133 68.8684 46.9696C68.4816 46.9696 68.0956 46.9696 67.7095 46.9696C67.7095 47.5629 67.7095 48.1562 67.7095 48.7495C68.2343 48.7495 68.7665 48.7495 69.2957 48.7495C69.2957 48.8057 69.2957 48.9175 69.2957 48.9745H67.0469C67.0489 47.5959 67.0504 46.2158 67.0514 44.8342Z" fill="white"/>
<path d="M72.8971 44.8334H73.1055C73.945 45.8675 74.7844 46.9023 75.6234 47.9379C75.6234 46.9006 75.6234 45.8633 75.6234 44.8259L75.7921 44.8454C75.7921 46.2225 75.7921 47.5997 75.7921 48.9768H75.6092C74.7651 47.9889 73.9301 46.9944 73.0875 46.0058C73.0875 46.9954 73.0875 47.9847 73.0875 48.9738H72.8978C72.8948 47.5974 72.8978 46.215 72.8971 44.8334Z" fill="white"/>
<path d="M79.447 44.8334C80.2881 44.8334 81.1294 44.8334 81.971 44.8334C81.971 44.8941 81.971 45.0164 81.971 45.0771C81.6651 45.0771 81.36 45.0771 81.0549 45.0771C81.0549 46.377 81.0549 47.6761 81.0549 48.9775H80.4005C80.4005 47.6776 80.4005 46.3785 80.4005 45.0771C80.0819 45.0771 79.7634 45.0771 79.4463 45.0771C79.444 45.0149 79.4463 44.8941 79.447 44.8334Z" fill="white"/>
</svg>
