<svg width="70" height="69" viewBox="0 0 70 69" fill="none" xmlns="http://www.w3.org/2000/svg">
<path d="M20.625 48.875C24.5945 48.875 27.8125 45.657 27.8125 41.6875C27.8125 37.718 24.5945 34.5 20.625 34.5C16.6555 34.5 13.4375 37.718 13.4375 41.6875C13.4375 45.657 16.6555 48.875 20.625 48.875Z" fill="#D6BBFB" stroke="black" stroke-width="4" stroke-linecap="round" stroke-linejoin="round"/>
<path d="M49.375 48.875C53.3445 48.875 56.5625 45.657 56.5625 41.6875C56.5625 37.718 53.3445 34.5 49.375 34.5C45.4055 34.5 42.1875 37.718 42.1875 41.6875C42.1875 45.657 45.4055 48.875 49.375 48.875Z" fill="#D6BBFB" stroke="black" stroke-width="4" stroke-linecap="round" stroke-linejoin="round"/>
<path d="M35 20.125C38.9695 20.125 42.1875 16.907 42.1875 12.9375C42.1875 8.96795 38.9695 5.75 35 5.75C31.0305 5.75 27.8125 8.96795 27.8125 12.9375C27.8125 16.907 31.0305 20.125 35 20.125Z" fill="#D6BBFB" stroke="black" stroke-width="4" stroke-linecap="round" stroke-linejoin="round"/>
<path d="M35 63.25C35 55.311 28.564 48.875 20.625 48.875C12.6859 48.875 6.25 55.311 6.25 63.25" stroke="black" stroke-width="4" stroke-linecap="round" stroke-linejoin="round"/>
<path d="M63.75 63.25C63.75 55.311 57.314 48.875 49.375 48.875C41.436 48.875 35 55.311 35 63.25" stroke="black" stroke-width="4" stroke-linecap="round" stroke-linejoin="round"/>
<path d="M49.375 34.5C49.375 26.561 42.939 20.125 35 20.125C27.061 20.125 20.625 26.561 20.625 34.5" stroke="black" stroke-width="4" stroke-linecap="round" stroke-linejoin="round"/>
</svg>
