<svg width="104" height="17" viewBox="0 0 104 17" fill="none" xmlns="http://www.w3.org/2000/svg">
<path d="M88.4314 7.75665C88.252 7.61661 88.1189 7.42126 88.0508 7.19798C87.9828 6.97469 87.9831 6.73468 88.0517 6.51159C88.1204 6.2885 88.254 6.09353 88.4337 5.954C88.6135 5.81447 88.8304 5.73738 89.0541 5.73356L93.3983 5.56159C93.4197 5.56005 93.4401 5.55207 93.4573 5.53861C93.4744 5.52514 93.4874 5.50678 93.4948 5.48573L94.996 1.23724C95.0714 1.02109 95.2084 0.834452 95.3884 0.702586C95.5684 0.57072 95.7828 0.5 96.0024 0.5C96.2221 0.5 96.4364 0.57072 96.6164 0.702586C96.7964 0.834452 96.9334 1.02109 97.0088 1.23724L98.5052 5.5009C98.5126 5.52195 98.5256 5.54032 98.5427 5.55378C98.5599 5.56724 98.5803 5.57522 98.6017 5.57677L102.946 5.74873C103.17 5.75256 103.387 5.82964 103.566 5.96917C103.746 6.1087 103.88 6.30368 103.948 6.52677C104.017 6.74985 104.017 6.98987 103.949 7.21315C103.881 7.43643 103.748 7.63178 103.569 7.77182L100.161 10.5789C100.144 10.5929 100.131 10.6119 100.124 10.6335C100.117 10.6551 100.117 10.6783 100.122 10.7002L101.295 15.0549C101.356 15.2767 101.35 15.5127 101.278 15.7308C101.206 15.9489 101.072 16.1386 100.894 16.274C100.716 16.4094 100.502 16.484 100.282 16.4876C100.062 16.4912 99.8458 16.4236 99.6636 16.2941L96.0627 13.7652C96.045 13.7524 96.024 13.7455 96.0024 13.7455C95.9809 13.7455 95.9598 13.7524 95.9421 13.7652L92.3412 16.2941C92.1614 16.428 91.9463 16.5 91.7258 16.5C91.5052 16.5 91.2901 16.428 91.1103 16.2941C90.932 16.16 90.7977 15.9712 90.726 15.7538C90.6543 15.5365 90.6486 15.3011 90.7097 15.0802L91.8923 10.7104C91.8986 10.6884 91.8982 10.665 91.8913 10.6433C91.8844 10.6215 91.8713 10.6026 91.8537 10.589L88.4314 7.75665Z" fill="#FBBC05"/>
<path d="M66.4314 7.75665C66.252 7.61661 66.1189 7.42126 66.0508 7.19798C65.9828 6.97469 65.9831 6.73468 66.0517 6.51159C66.1204 6.2885 66.254 6.09353 66.4337 5.954C66.6135 5.81447 66.8304 5.73738 67.0541 5.73356L71.3983 5.56159C71.4197 5.56005 71.4401 5.55207 71.4573 5.53861C71.4744 5.52514 71.4874 5.50678 71.4948 5.48573L72.996 1.23724C73.0714 1.02109 73.2084 0.834452 73.3884 0.702586C73.5684 0.57072 73.7828 0.5 74.0024 0.5C74.2221 0.5 74.4364 0.57072 74.6164 0.702586C74.7964 0.834452 74.9334 1.02109 75.0088 1.23724L76.5052 5.5009C76.5126 5.52195 76.5256 5.54032 76.5427 5.55378C76.5599 5.56724 76.5803 5.57522 76.6017 5.57677L80.9459 5.74873C81.1696 5.75256 81.3865 5.82964 81.5663 5.96917C81.746 6.1087 81.8796 6.30368 81.9483 6.52677C82.0169 6.74985 82.0172 6.98987 81.9492 7.21315C81.8811 7.43643 81.748 7.63178 81.5686 7.77182L78.1608 10.5789C78.1437 10.5929 78.131 10.6119 78.1241 10.6335C78.1173 10.6551 78.1166 10.6783 78.1222 10.7002L79.2951 15.0549C79.3559 15.2767 79.35 15.5127 79.2783 15.7308C79.2065 15.9489 79.0724 16.1386 78.8941 16.274C78.7158 16.4094 78.502 16.484 78.2819 16.4876C78.0617 16.4912 77.8458 16.4236 77.6636 16.2941L74.0627 13.7652C74.045 13.7524 74.024 13.7455 74.0024 13.7455C73.9809 13.7455 73.9598 13.7524 73.9421 13.7652L70.3412 16.2941C70.1614 16.428 69.9463 16.5 69.7258 16.5C69.5052 16.5 69.2901 16.428 69.1103 16.2941C68.932 16.16 68.7977 15.9712 68.726 15.7538C68.6543 15.5365 68.6486 15.3011 68.7097 15.0802L69.8923 10.7104C69.8986 10.6884 69.8982 10.665 69.8913 10.6433C69.8844 10.6215 69.8713 10.6026 69.8537 10.589L66.4314 7.75665Z" fill="#FBBC05"/>
<path d="M44.4314 7.75665C44.252 7.61661 44.1189 7.42126 44.0508 7.19798C43.9828 6.97469 43.9831 6.73468 44.0517 6.51159C44.1204 6.2885 44.254 6.09353 44.4337 5.954C44.6135 5.81447 44.8304 5.73738 45.0541 5.73356L49.3983 5.56159C49.4197 5.56005 49.4401 5.55207 49.4573 5.53861C49.4744 5.52514 49.4874 5.50678 49.4948 5.48573L50.996 1.23724C51.0714 1.02109 51.2084 0.834452 51.3884 0.702586C51.5684 0.57072 51.7828 0.5 52.0024 0.5C52.2221 0.5 52.4364 0.57072 52.6164 0.702586C52.7964 0.834452 52.9334 1.02109 53.0088 1.23724L54.5052 5.5009C54.5126 5.52195 54.5256 5.54032 54.5427 5.55378C54.5599 5.56724 54.5803 5.57522 54.6017 5.57677L58.9459 5.74873C59.1696 5.75256 59.3865 5.82964 59.5663 5.96917C59.746 6.1087 59.8796 6.30368 59.9483 6.52677C60.0169 6.74985 60.0172 6.98987 59.9492 7.21315C59.8811 7.43643 59.748 7.63178 59.5686 7.77182L56.1608 10.5789C56.1437 10.5929 56.131 10.6119 56.1241 10.6335C56.1173 10.6551 56.1166 10.6783 56.1222 10.7002L57.2951 15.0549C57.3559 15.2767 57.35 15.5127 57.2783 15.7308C57.2065 15.9489 57.0724 16.1386 56.8941 16.274C56.7158 16.4094 56.502 16.484 56.2819 16.4876C56.0617 16.4912 55.8458 16.4236 55.6636 16.2941L52.0627 13.7652C52.045 13.7524 52.024 13.7455 52.0024 13.7455C51.9809 13.7455 51.9598 13.7524 51.9421 13.7652L48.3412 16.2941C48.1614 16.428 47.9463 16.5 47.7258 16.5C47.5052 16.5 47.2901 16.428 47.1103 16.2941C46.932 16.16 46.7977 15.9712 46.726 15.7538C46.6543 15.5365 46.6486 15.3011 46.7097 15.0802L47.8923 10.7104C47.8986 10.6884 47.8982 10.665 47.8913 10.6433C47.8844 10.6215 47.8713 10.6026 47.8537 10.589L44.4314 7.75665Z" fill="#FBBC05"/>
<path d="M22.4314 7.75665C22.252 7.61661 22.1189 7.42126 22.0508 7.19798C21.9828 6.97469 21.9831 6.73468 22.0517 6.51159C22.1204 6.2885 22.254 6.09353 22.4337 5.954C22.6135 5.81447 22.8304 5.73738 23.0541 5.73356L27.3983 5.56159C27.4197 5.56005 27.4401 5.55207 27.4573 5.53861C27.4744 5.52514 27.4874 5.50678 27.4948 5.48573L28.996 1.23724C29.0714 1.02109 29.2084 0.834452 29.3884 0.702586C29.5684 0.57072 29.7828 0.5 30.0024 0.5C30.2221 0.5 30.4364 0.57072 30.6164 0.702586C30.7964 0.834452 30.9334 1.02109 31.0088 1.23724L32.5052 5.5009C32.5126 5.52195 32.5256 5.54032 32.5427 5.55378C32.5599 5.56724 32.5803 5.57522 32.6017 5.57677L36.9459 5.74873C37.1696 5.75256 37.3865 5.82964 37.5663 5.96917C37.746 6.1087 37.8796 6.30368 37.9483 6.52677C38.0169 6.74986 38.0172 6.98987 37.9492 7.21315C37.8811 7.43643 37.748 7.63178 37.5686 7.77182L34.1608 10.5789C34.1437 10.5929 34.131 10.6119 34.1241 10.6335C34.1173 10.6551 34.1166 10.6783 34.1222 10.7002L35.2951 15.0549C35.3559 15.2767 35.35 15.5127 35.2783 15.7308C35.2065 15.9489 35.0724 16.1386 34.8941 16.274C34.7158 16.4094 34.502 16.484 34.2819 16.4876C34.0617 16.4912 33.8458 16.4236 33.6636 16.2941L30.0627 13.7652C30.045 13.7524 30.024 13.7455 30.0024 13.7455C29.9809 13.7455 29.9598 13.7524 29.9421 13.7652L26.3412 16.2941C26.1614 16.428 25.9463 16.5 25.7258 16.5C25.5052 16.5 25.2901 16.428 25.1103 16.2941C24.932 16.16 24.7977 15.9712 24.726 15.7538C24.6543 15.5365 24.6486 15.3011 24.7097 15.0802L25.8923 10.7104C25.8986 10.6884 25.8982 10.665 25.8913 10.6433C25.8844 10.6215 25.8713 10.6026 25.8537 10.589L22.4314 7.75665ZM26.8239 10.9582L25.6413 15.3281C25.6317 15.3514 25.63 15.3775 25.6365 15.402C25.643 15.4265 25.6573 15.448 25.6771 15.4627C25.6968 15.4775 25.7208 15.4848 25.745 15.4833C25.7693 15.4818 25.7923 15.4716 25.8102 15.4545L29.4111 12.9256C29.5878 12.8003 29.7963 12.7333 30.0097 12.7334V1.51541C29.9869 1.51348 29.9643 1.52004 29.9457 1.53392C29.9272 1.54781 29.9139 1.56813 29.9083 1.59128L28.4071 5.84483C28.3344 6.05446 28.2037 6.23666 28.0318 6.36817C27.8599 6.49969 27.6544 6.57457 27.4417 6.58325L23.0975 6.75522C23.0748 6.75483 23.0526 6.76209 23.0341 6.77593C23.0156 6.78976 23.0018 6.80944 22.9948 6.83208C22.9878 6.85472 22.9879 6.87912 22.9951 6.9017C23.0023 6.92428 23.0162 6.94384 23.0348 6.95753L26.4426 9.76456C26.6132 9.90038 26.7408 10.0869 26.8088 10.2998C26.8768 10.5127 26.8821 10.7421 26.8239 10.9582Z" fill="#FBBC05"/>
<path d="M0.744693 7.3669L0.739063 7.36251C0.642902 7.28745 0.568027 7.17978 0.5291 7.05213C0.490129 6.92433 0.490309 6.78634 0.529602 6.65867C0.568848 6.53116 0.643981 6.42374 0.740303 6.34897C0.836255 6.27449 0.949017 6.23543 1.06263 6.23348L1.07386 6.23329L1.07385 6.23317L5.41807 6.0612L5.42623 6.06088L5.43437 6.06029C5.55699 6.05142 5.67212 6.00568 5.76621 5.93174C5.85978 5.8582 5.9281 5.76046 5.96627 5.65231L0.744693 7.3669ZM0.744693 7.3669L0.750195 7.37145L4.16878 10.2007C4.264 10.2774 4.33207 10.3794 4.36778 10.4917C4.40407 10.6058 4.40629 10.728 4.37436 10.8431L3.19234 15.2108L3.19235 15.2108L3.19159 15.2136C3.15678 15.3394 3.16009 15.4738 3.20081 15.5971C3.24134 15.72 3.31581 15.8227 3.41 15.8938C3.50474 15.9641 3.61508 16 3.72577 16C3.83682 16 3.9475 15.9639 4.04245 15.8932L4.04233 15.893L4.05384 15.8849L7.65304 13.3572C7.75383 13.2856 7.87555 13.2455 8.00241 13.2455C8.12927 13.2455 8.25099 13.2856 8.35178 13.3572L11.951 15.8849L11.951 15.8849L11.9533 15.8865C12.0501 15.9553 12.1619 15.9895 12.2737 15.9876C12.3856 15.9858 12.4966 15.948 12.5917 15.8758C12.6871 15.8034 12.7623 15.699 12.8033 15.5746C12.8443 15.4499 12.8478 15.3142 12.8129 15.1871L12.8123 15.185L11.6394 10.8303L11.6393 10.8303L11.6376 10.8235C11.609 10.7111 11.6124 10.5927 11.6477 10.4819C11.6829 10.371 11.7495 10.2699 11.8427 10.1931L11.8429 10.1929L15.2507 7.38589L15.2506 7.38576L15.2609 7.37768C15.3571 7.30262 15.432 7.19495 15.4709 7.0673C15.5099 6.93951 15.5097 6.80152 15.4704 6.67385C15.4312 6.54634 15.356 6.43891 15.2597 6.36415C15.1637 6.28967 15.051 6.2506 14.9374 6.24866L14.9374 6.24878L14.9261 6.24834L10.5819 6.07638L10.5738 6.07605L10.5656 6.07546C10.443 6.06659 10.3279 6.02085 10.2338 5.94691C10.14 5.87318 10.0715 5.77512 10.0334 5.66663L10.0334 5.66648L8.53703 1.40282L8.53674 1.40197C8.49375 1.27877 8.41704 1.17635 8.32092 1.10594C8.22516 1.03579 8.11399 1 8.00241 1C7.89084 1 7.77966 1.03579 7.6839 1.10594C7.58779 1.17635 7.51108 1.27877 7.46809 1.40197L7.46744 1.40382L5.96657 5.65146L0.744693 7.3669Z" stroke="#FBBC05"/>
</svg>
